<svg xmlns="http://www.w3.org/2000/svg" width="59.587" height="22.478" viewBox="0 0 59.587 22.478"><defs><style>.a,.b,.c{fill:#2c2c2c;}.a,.b{stroke:#fff;}.a{stroke-width:0.1px;}.d{stroke:none;}.e{fill:none;}</style></defs><g transform="translate(-135.824 -812.522)"><g transform="translate(14 -9)"><g class="a" transform="translate(141 829)"><circle class="d" cx="3" cy="3" r="3"/><circle class="e" cx="3" cy="3" r="2.95"/></g><g class="a" transform="translate(168 829)"><circle class="d" cx="3" cy="3" r="3"/><circle class="e" cx="3" cy="3" r="2.95"/></g><path class="b" d="M136.376,831.945s.413-4.192,1.653-4.393,6.095-1.307,8.574-1.307,3.925-3.016,7.231-3.619a82.346,82.346,0,0,1,12.086-.6c3.125,0,6.379,2.564,8.47,3.619s3.564.327,4.752.6,1.472,3.469,1.756,4.625-6.249,1.076-6.249,1.076a3.471,3.471,0,0,0-3.618-3.388,3.509,3.509,0,0,0-3.687,3.388H147.652a3.465,3.465,0,0,0-3.625-3.4,3.525,3.525,0,0,0-3.647,3.4Z"/><path class="c" d="M155.429,827.005c-1.157,0,3.225-2.48,3.738-2.593.335-.1,2.569-.257,5.327-.405,2.211-.119,4.927-.226,6.454-.226,3.1,0,6.164,2.985,5.388,3-.375.006-4.922.059-9.922.115C161.545,826.948,156.19,827.005,155.429,827.005Z" transform="translate(-5.254 -0.446)"/></g><g class="a" transform="translate(141 829)"><circle class="d" cx="3" cy="3" r="3"/><circle class="e" cx="3" cy="3" r="2.95"/></g><g class="a" transform="translate(168 829)"><circle class="d" cx="3" cy="3" r="3"/><circle class="e" cx="3" cy="3" r="2.95"/></g><path class="b" d="M136.376,831.945s.413-4.192,1.653-4.393,6.095-1.307,8.574-1.307,3.925-3.016,7.231-3.619a82.346,82.346,0,0,1,12.086-.6c3.125,0,6.379,2.564,8.47,3.619s3.564.327,4.752.6,1.472,3.469,1.756,4.625-6.249,1.076-6.249,1.076a3.471,3.471,0,0,0-3.618-3.388,3.509,3.509,0,0,0-3.687,3.388H147.652a3.465,3.465,0,0,0-3.625-3.4,3.525,3.525,0,0,0-3.647,3.4Z"/><path class="c" d="M155.429,827.005c-1.157,0,3.225-2.48,3.738-2.593.335-.1,2.569-.257,5.327-.405,2.211-.119,4.927-.226,6.454-.226,3.1,0,6.164,2.985,5.388,3-.375.006-4.922.059-9.922.115C161.545,826.948,156.19,827.005,155.429,827.005Z" transform="translate(-5.254 -0.446)"/></g></svg>