<svg xmlns="http://www.w3.org/2000/svg" width="42.379" height="41.427" viewBox="0 0 42.379 41.427"><defs><style>.a{fill:#2c2c2c;}.a,.b{stroke:#fff;}.b{fill:#ff5b3b;}.c{fill:#fff;font-size:16px;font-family:Roboto-Regular, Roboto;}.d{stroke:none;}.e{fill:none;}</style></defs><g transform="translate(-67.621 -795)"><g transform="translate(68.22 810)"><g transform="translate(-40.22 -892)"><g class="a" transform="translate(54 892)"><circle class="d" cx="4.5" cy="4.5" r="4.5"/><circle class="e" cx="4.5" cy="4.5" r="4"/></g><path class="a" d="M51.149,907.612h16.1s-1.257-9.685-7.8-9.685S51.149,907.612,51.149,907.612Z" transform="translate(-0.929 3.315)"/></g><g transform="translate(-50.22 -889)"><g class="a" transform="translate(54 892)"><circle class="d" cx="4.5" cy="4.5" r="4.5"/><circle class="e" cx="4.5" cy="4.5" r="4"/></g><path class="a" d="M51.149,907.612h16.1s-1.257-9.685-7.8-9.685S51.149,907.612,51.149,907.612Z" transform="translate(-0.929 3.315)"/></g><g transform="translate(-32.22 -885)"><g class="a" transform="translate(54 892)"><circle class="d" cx="4.5" cy="4.5" r="4.5"/><circle class="e" cx="4.5" cy="4.5" r="4"/></g><path class="a" d="M51.149,907.612h16.1s-1.257-9.685-7.8-9.685S51.149,907.612,51.149,907.612Z" transform="translate(-0.929 3.315)"/></g></g><g transform="translate(11 -4)"><g class="b" transform="translate(80 801)"><circle class="d" cx="9.5" cy="9.5" r="9.5"/><circle class="e" cx="9.5" cy="9.5" r="9"/></g><text class="c" transform="translate(85 816)"><tspan x="0" y="0">4</tspan></text></g></g></svg>