<svg xmlns="http://www.w3.org/2000/svg" width="27" height="27" viewBox="0 0 27 27">
  <defs>
    <style>
      .cls-11 {
        fill: #fff;
        stroke-width: 2px;
      }

      .cls-11, .cls-21 {
        stroke: #000;
      }

      .cls-31 {
        stroke: none;
      }

      .cls-41 {
        fill: none;
      }
    </style>
  </defs>
  <g id="light" transform="translate(-71 -861)">
    <g id="Ellipse_6" data-name="Ellipse 6" class="cls-11" transform="translate(78 868)">
      <circle class="cls-31" cx="6.5" cy="6.5" r="6.5"/>
      <circle class="cls-41" cx="6.5" cy="6.5" r="5.5"/>
    </g>
    <g id="Ellipse_7" data-name="Ellipse 7" class="cls-21" transform="translate(83 861)">
      <circle class="cls-31" cx="1.5" cy="1.5" r="1.5"/>
      <circle class="cls-41" cx="1.5" cy="1.5" r="1"/>
    </g>
    <g id="Ellipse_8" data-name="Ellipse 8" class="cls-21" transform="translate(83 861)">
      <circle class="cls-31" cx="1.5" cy="1.5" r="1.5"/>
      <circle class="cls-41" cx="1.5" cy="1.5" r="1"/>
    </g>
    <g id="Ellipse_9" data-name="Ellipse 9" class="cls-21" transform="translate(92 865)">
      <circle class="cls-31" cx="1.5" cy="1.5" r="1.5"/>
      <circle class="cls-41" cx="1.5" cy="1.5" r="1"/>
    </g>
    <g id="Ellipse_10" data-name="Ellipse 10" class="cls-21" transform="translate(95 873)">
      <circle class="cls-31" cx="1.5" cy="1.5" r="1.5"/>
      <circle class="cls-41" cx="1.5" cy="1.5" r="1"/>
    </g>
    <g id="Ellipse_11" data-name="Ellipse 11" class="cls-21" transform="translate(92 881)">
      <circle class="cls-31" cx="1.5" cy="1.5" r="1.5"/>
      <circle class="cls-41" cx="1.5" cy="1.5" r="1"/>
    </g>
    <g id="Ellipse_12" data-name="Ellipse 12" class="cls-21" transform="translate(83 885)">
      <circle class="cls-31" cx="1.5" cy="1.5" r="1.5"/>
      <circle class="cls-41" cx="1.5" cy="1.5" r="1"/>
    </g>
    <g id="Ellipse_13" data-name="Ellipse 13" class="cls-21" transform="translate(75 882)">
      <circle class="cls-31" cx="1.5" cy="1.5" r="1.5"/>
      <circle class="cls-41" cx="1.5" cy="1.5" r="1"/>
    </g>
    <g id="Ellipse_14" data-name="Ellipse 14" class="cls-21" transform="translate(71 873)">
      <circle class="cls-31" cx="1.5" cy="1.5" r="1.5"/>
      <circle class="cls-41" cx="1.5" cy="1.5" r="1"/>
    </g>
    <g id="Ellipse_15" data-name="Ellipse 15" class="cls-21" transform="translate(74 865)">
      <circle class="cls-31" cx="1.5" cy="1.5" r="1.5"/>
      <circle class="cls-41" cx="1.5" cy="1.5" r="1"/>
    </g>
  </g>
</svg>
