<svg xmlns="http://www.w3.org/2000/svg" width="53.984" height="52.518" viewBox="0 0 53.984 52.518"><defs><style>.a,.b{fill:#2c2c2c;}.a{stroke:#fff;}.c{stroke:none;}.d{fill:none;}</style></defs><g transform="translate(-185.621 -565.765)"><g transform="translate(186.22 575.845)"><g class="a" transform="translate(8.78 0.155)"><circle class="c" cx="10" cy="10" r="10"/><circle class="d" cx="10" cy="10" r="9.5"/></g><path class="a" d="M51.149,919.571H87.117s-2.81-21.644-17.422-21.644S51.149,919.571,51.149,919.571Z" transform="translate(-51.149 -877.634)"/></g><g transform="translate(214.986 577.228) rotate(-45)"><path class="b" d="M0,11.181H0V1.739S.232-.082,1.706,0,3.384,1.739,3.384,1.739v9.442s.021,1.859-1.677,1.753A1.764,1.764,0,0,1,0,11.181" transform="translate(11.541 9.149) rotate(135)"/><path class="b" d="M0,11.181H0V1.739S.232-.082,1.706,0,3.384,1.739,3.384,1.739v9.442s.021,1.859-1.677,1.753A1.764,1.764,0,0,1,0,11.181" transform="translate(9.149 7.063) rotate(45)"/><path class="b" d="M0,11.181H0V1.739S.232-.082,1.706,0,3.384,1.739,3.384,1.739v9.442s.021,1.859-1.677,1.753A1.764,1.764,0,0,1,0,11.181" transform="translate(18.605 16.212) rotate(135)"/><path class="b" d="M0,11.181H0V1.739S.232-.082,1.706,0,3.384,1.739,3.384,1.739v9.442s.021,1.859-1.677,1.753A1.764,1.764,0,0,1,0,11.181" transform="translate(16.212 0) rotate(45)"/></g></g></svg>