<svg xmlns="http://www.w3.org/2000/svg" width="22.927" height="22.927" viewBox="0 0 22.927 22.927"><defs><style>.a{fill:#2c2c2c;}</style></defs><g transform="translate(-1.692 11.464) rotate(-45)"><path class="a" d="M0,11.181H0V1.739S.232-.082,1.706,0,3.384,1.739,3.384,1.739v9.442s.021,1.859-1.677,1.753A1.764,1.764,0,0,1,0,11.181" transform="translate(11.541 9.149) rotate(135)"/><path class="a" d="M0,11.181H0V1.739S.232-.082,1.706,0,3.384,1.739,3.384,1.739v9.442s.021,1.859-1.677,1.753A1.764,1.764,0,0,1,0,11.181" transform="translate(9.149 7.063) rotate(45)"/><path class="a" d="M0,11.181H0V1.739S.232-.082,1.706,0,3.384,1.739,3.384,1.739v9.442s.021,1.859-1.677,1.753A1.764,1.764,0,0,1,0,11.181" transform="translate(18.605 16.212) rotate(135)"/><path class="a" d="M0,11.181H0V1.739S.232-.082,1.706,0,3.384,1.739,3.384,1.739v9.442s.021,1.859-1.677,1.753A1.764,1.764,0,0,1,0,11.181" transform="translate(16.212 0) rotate(45)"/></g></svg>