<svg xmlns="http://www.w3.org/2000/svg" width="69.65" height="48.918" viewBox="0 0 69.65 48.918"><defs><style>.a{fill:#2c2c2c;}</style></defs><g transform="translate(-277.783 -448.901)"><path class="a" d="M0,11.6H0V1.8S.241-.085,1.771,0s1.74,1.8,1.74,1.8v9.8s.022,1.929-1.74,1.819A1.83,1.83,0,0,1,0,11.6" transform="translate(281.294 497.82) rotate(180)"/><path class="a" d="M263.036,492.451c.049.455-.049,3.954,0,4a44.981,44.981,0,0,0,4.89-.85c1.308-.239,5.212-4.338,5.492-4.611s-2.255.061-3.623-.7a4.453,4.453,0,0,1-1.85-2.357h0c-.008.031-3.016,3.379-3.464,3.8S263.085,492.186,263.036,492.451Z" transform="translate(19.561 -3.273)"/><path class="a" d="M8.245,1.708A4.122,4.122,0,1,1,0,1.708C0-.569,8.245-.569,8.245,1.708Z" transform="matrix(0.891, 0.454, -0.454, 0.891, 289.174, 478.973)"/><path class="a" d="M0,15.878H0V2.47S.241-.117,1.771,0,3.511,2.47,3.511,2.47V15.878s.022,2.641-1.74,2.489S0,15.878,0,15.878" transform="translate(303.793 481.52) rotate(116)"/><path class="a" d="M.219,12.15C2.843,14,24.234,28.519,27.708,30.645s12.347-5.482,13.264-6.165S50.1,30.141,51.9,30.645s10.874-4.137,10.088-4.577S21.828-.46,20.609.006-2.4,10.3.219,12.15Z" transform="translate(281.681 457.535) rotate(-8)"/><path class="a" d="M302,486.85c1.437-.144,7.114-4.958,7.545-5.677s10.275,3.952,9.772,4.527-4.455,7.4-5.461,7.042S300.567,486.993,302,486.85Z" transform="translate(16.3 -2.701)"/></g></svg>