<svg xmlns="http://www.w3.org/2000/svg" width="30" height="31" viewBox="0 0 30 31"><defs><style>.a,.d{fill:none;}.a{stroke:#ff4b14;stroke-width:3px;}.b{fill:#ff4b14;}.c{stroke:none;}</style></defs><g transform="translate(-320 -806)"><g class="a" transform="translate(320 806)"><ellipse class="c" cx="15" cy="15.5" rx="15" ry="15.5"/><ellipse class="d" cx="15" cy="15.5" rx="13.5" ry="14"/></g><path class="b" d="M329.007,815.583v9.326a1.7,1.7,0,0,0,1.845,1.875,1.814,1.814,0,0,0,1.979-1.875v-9.326a1.963,1.963,0,0,0-1.979-1.615A1.814,1.814,0,0,0,329.007,815.583Z" transform="translate(0 0.866)"/><path class="b" d="M329.007,815.583v9.326a1.7,1.7,0,0,0,1.845,1.875,1.814,1.814,0,0,0,1.979-1.875v-9.326a1.963,1.963,0,0,0-1.979-1.615A1.814,1.814,0,0,0,329.007,815.583Z" transform="translate(8 0.866)"/></g></svg>