<svg xmlns="http://www.w3.org/2000/svg" width="73" height="63" viewBox="0 0 73 63">
  <defs>
    <style>
      .cls-1E {
        fill: #fff;
      }

      .cls-2E {
        fill: #2c2c2c;
      }

      .cls-3E, .cls-4E {
        stroke: none;
      }

      .cls-4E {
        fill: #ff4747;
      }
    </style>
  </defs>
  <g id="emergency" transform="translate(-172 -554)">
    <g id="Polygon_1" data-name="Polygon 1" class="cls-1E" transform="translate(172 554)">
      <path class="cls-3E" d="M 59.11940383911133 60.5 L 13.88059234619141 60.5 C 11.89050388336182 60.5 10.10911464691162 59.47061920166016 9.115381240844727 57.74639892578125 C 8.121637344360352 56.02218627929688 8.123970031738281 53.96476364135742 9.121614456176758 52.2428092956543 L 31.74102592468262 13.20109844207764 C 32.73606109619141 11.483642578125 34.51511383056641 10.45828723907471 36.50000381469727 10.45828723907471 C 38.48488235473633 10.45828723907471 40.26394653320313 11.483642578125 41.25899124145508 13.20109844207764 L 63.87839126586914 52.2428092956543 C 64.87603759765625 53.96476364135742 64.87835693359375 56.02218627929688 63.88462448120117 57.74639892578125 C 62.8908805847168 59.47061920166016 61.10949325561523 60.5 59.11940383911133 60.5 Z"/>
      <path class="cls-4E" d="M 36.49999237060547 12.95828247070313 C 35.98012542724609 12.95828247070313 34.6865119934082 13.10405731201172 33.90419006347656 14.45436477661133 L 11.2847900390625 53.49607086181641 C 10.50041580200195 54.84992218017578 11.02111053466797 56.04644393920898 11.28139114379883 56.49804306030273 C 11.54165649414063 56.94964218139648 12.31595230102539 58.00000381469727 13.88059234619141 58.00000381469727 L 59.11940383911133 58.00000381469727 C 60.68404388427734 58.00000381469727 61.45833587646484 56.94963073730469 61.7186164855957 56.49804306030273 C 61.97889709472656 56.04644393920898 62.49959182739258 54.84991073608398 61.71521759033203 53.49607086181641 L 39.09580230712891 14.45434951782227 C 38.31348419189453 13.10405731201172 37.01985549926758 12.95828247070313 36.49999237060547 12.95828247070313 M 36.49999618530273 7.958278656005859 C 39.19060897827148 7.958278656005859 41.88121795654297 9.288131713867188 43.42214965820313 11.94783020019531 L 66.04156494140625 50.98953628540039 C 69.13150787353516 56.32286834716797 65.28318023681641 63.00000381469727 59.11940383911133 63.00000381469727 L 13.88059234619141 63.00000381469727 C 7.716819763183594 63.00000381469727 3.868499755859375 56.32286834716797 6.958442687988281 50.98953628540039 L 29.57784271240234 11.94783020019531 C 31.11877822875977 9.288131713867188 33.80938720703125 7.958278656005859 36.49999618530273 7.958278656005859 Z"/>
    </g>
    <g id="attention" transform="translate(-104 212)">
      <path id="Path_41" data-name="Path 41" class="cls-2E" d="M0,23.03H0V3.583S.478-.169,3.515.006,6.969,3.583,6.969,3.583V23.03s.044,3.83-3.454,3.611A3.632,3.632,0,0,1,0,23.03" transform="translate(315.726 387.188) rotate(180)"/>
      <circle id="Ellipse_22" data-name="Ellipse 22" class="cls-2E" cx="4.5" cy="4.5" r="4.5" transform="translate(308 389)"/>
    </g>
  </g>
</svg>
