<svg xmlns="http://www.w3.org/2000/svg" width="136" height="31" viewBox="0 0 136 31"><defs><style>.a{fill:#2c2c2c;}</style></defs><g transform="translate(-53 -465)"><g transform="translate(33 -9)"><path class="a" d="M60.567,498.6h0V479.639s-.224-2.825,1.888-2.8,1.944,2.8,1.944,2.8V498.6s-.006,2.691-1.918,2.642-1.914-2.642-1.914-2.642" transform="translate(553.793 427.526) rotate(90)"/><path class="a" d="M60.567,488.9h0V478.211s.263-2.063,1.933-1.967,1.9,1.967,1.9,1.967V488.9s.024,2.106-1.9,1.985a2,2,0,0,1-1.933-1.985" transform="translate(457.816 783.725) rotate(135)"/><path class="a" d="M60.567,488.9h0V478.211s.263-2.063,1.933-1.967,1.9,1.967,1.9,1.967V488.9s.024,2.106-1.9,1.985a2,2,0,0,1-1.933-1.985" transform="translate(369.452 107.856) rotate(45)"/></g><g transform="translate(0 -10)"><rect class="a" width="66" height="31" transform="translate(123 475)"/><rect class="a" width="22" height="31" transform="translate(53 475)"/></g></g></svg>