<svg xmlns="http://www.w3.org/2000/svg" xmlns:xlink="http://www.w3.org/1999/xlink" width="200" height="200" viewBox="0 0 200 200"><defs><style>.a,.g{fill:#bde0fe;}.b,.i{fill:none;}.b,.c,.d,.e,.g{stroke:#707070;stroke-width:3px;}.c{fill:#fff;}.d{fill:#ffafcc;}.e{fill:#acacac;}.f{fill:#cdb4db;}.h,.j{stroke:none;}.j{fill:#707070;}.k{filter:url(#a);}</style><filter id="a" x="8" y="29" width="181" height="144" filterUnits="userSpaceOnUse"><feOffset dx="3" dy="6" input="SourceAlpha"/><feGaussianBlur stdDeviation="5" result="b"/><feFlood flood-opacity="0.161"/><feComposite operator="in" in2="b"/><feComposite in="SourceGraphic"/></filter></defs><g transform="translate(-80 -220)"><rect class="a" width="190" height="190" rx="35" transform="translate(90 230)"/><g class="b" transform="translate(80 220)"><rect class="h" width="190" height="190" rx="35"/><rect class="i" x="1.5" y="1.5" width="187" height="187" rx="33.5"/></g><g class="k" transform="matrix(1, 0, 0, 1, 80, 220)"><g class="c" transform="translate(20 38)"><rect class="h" width="151" height="114" rx="20"/><rect class="i" x="1.5" y="1.5" width="148" height="111" rx="18.5"/></g></g><g class="d" transform="translate(110 273)"><circle class="h" cx="9" cy="9" r="9"/><circle class="i" cx="9" cy="9" r="7.5"/></g><g class="e" transform="translate(142 273)"><rect class="h" width="99" height="18" rx="9"/><rect class="i" x="1.5" y="1.5" width="96" height="15" rx="7.5"/></g><g class="f" transform="translate(241 325) rotate(180)"><path class="h" d="M 9 16.5 C 4.864490032196045 16.5 1.5 13.13551044464111 1.5 9 C 1.5 4.864490032196045 4.864490032196045 1.5 9 1.5 C 13.13551044464111 1.5 16.5 4.864490032196045 16.5 9 C 16.5 13.13551044464111 13.13551044464111 16.5 9 16.5 Z"/><path class="j" d="M 9 3 C 5.691590309143066 3 3 5.691590309143066 3 9 C 3 12.30841064453125 5.691590309143066 15 9 15 C 12.30841064453125 15 15 12.30841064453125 15 9 C 15 5.691590309143066 12.30841064453125 3 9 3 M 9 0 C 13.97056007385254 0 18 4.029439926147461 18 9 C 18 13.97056007385254 13.97056007385254 18 9 18 C 4.029439926147461 18 0 13.97056007385254 0 9 C 0 4.029439926147461 4.029439926147461 0 9 0 Z"/></g><g class="e" transform="translate(209 325) rotate(180)"><rect class="h" width="99" height="18" rx="9"/><rect class="i" x="1.5" y="1.5" width="96" height="15" rx="7.5"/></g><g class="g" transform="translate(110 339)"><circle class="h" cx="9" cy="9" r="9"/><circle class="i" cx="9" cy="9" r="7.5"/></g><g class="e" transform="translate(142 339)"><rect class="h" width="99" height="18" rx="9"/><rect class="i" x="1.5" y="1.5" width="96" height="15" rx="7.5"/></g></g></svg>